<?xml version="1.0" encoding="UTF-8" standalone="no"?>
<svg
   xmlns:dc="http://purl.org/dc/elements/1.1/"
   xmlns:cc="http://creativecommons.org/ns#"
   xmlns:rdf="http://www.w3.org/1999/02/22-rdf-syntax-ns#"
   xmlns:svg="http://www.w3.org/2000/svg"
   xmlns="http://www.w3.org/2000/svg"
   xmlns:sodipodi="http://sodipodi.sourceforge.net/DTD/sodipodi-0.dtd"
   xmlns:inkscape="http://www.inkscape.org/namespaces/inkscape"
   width="602.46875pt"
   height="602.46881pt"
   viewBox="0 0 602.46875 602.46878"
   version="1.2"
   id="svg899"
   sodipodi:docname="hashtop-fitted.svg"
   inkscape:version="1.0.1 (c497b03c, 2020-09-10)"
   inkscape:export-filename="/Users/evanhuang/Documents/RAS/logo/hashtop-65px.png"
   inkscape:export-xdpi="7.7680368"
   inkscape:export-ydpi="7.7680368">
  <metadata
     id="metadata903">
    <rdf:RDF>
      <cc:Work
         rdf:about="">
        <dc:format>image/svg+xml</dc:format>
        <dc:type
           rdf:resource="http://purl.org/dc/dcmitype/StillImage" />
        <dc:title />
      </cc:Work>
    </rdf:RDF>
  </metadata>
  <sodipodi:namedview
     pagecolor="#ffffff"
     bordercolor="#666666"
     borderopacity="1"
     objecttolerance="10"
     gridtolerance="10"
     guidetolerance="10"
     inkscape:pageopacity="0"
     inkscape:pageshadow="2"
     inkscape:window-width="1731"
     inkscape:window-height="1102"
     id="namedview901"
     showgrid="false"
     inkscape:zoom="0.44533333"
     inkscape:cx="-86.953878"
     inkscape:cy="385.30071"
     inkscape:window-x="0"
     inkscape:window-y="23"
     inkscape:window-maximized="0"
     inkscape:current-layer="svg899"
     inkscape:document-rotation="0"
     fit-margin-top="0"
     fit-margin-left="0"
     fit-margin-right="0"
     fit-margin-bottom="0" />
  <defs
     id="defs860">
    <clipPath
       id="clip1">
      <path
         d="M 426,426 H 699 V 699 H 426 Z m 0,0"
         id="path833" />
    </clipPath>
    <clipPath
       id="clip2">
      <path
         d="M 378.04297,562.5 562.59766,377.94141 747.15234,562.5 562.59766,747.05469 Z m 0,0"
         id="path836" />
    </clipPath>
    <clipPath
       id="clip3">
      <path
         d="M 378.04297,562.5 562.59766,377.94141 747.15234,562.5 562.59766,747.05469 Z m 0,0"
         id="path839" />
    </clipPath>
    <clipPath
       id="clip4">
      <path
         d="M 272,374 H 853 V 954 H 272 Z m 0,0"
         id="path842" />
    </clipPath>
    <clipPath
       id="clip5">
      <path
         d="M 562.5,345.72266 880.69922,663.92187 562.5,982.11719 244.30078,663.92187 Z m 0,0"
         id="path845" />
    </clipPath>
    <clipPath
       id="clip6">
      <path
         d="M 562.5,345.72266 880.69922,663.92187 562.5,982.11719 244.30078,663.92187 Z m 0,0"
         id="path848" />
    </clipPath>
    <clipPath
       id="clip7">
      <path
         d="M 272,158 H 853 V 738 H 272 Z m 0,0"
         id="path851" />
    </clipPath>
    <clipPath
       id="clip8">
      <path
         d="M 562.5,130.10156 880.69922,448.30078 562.5,766.49609 244.30078,448.30078 Z m 0,0"
         id="path854" />
    </clipPath>
    <clipPath
       id="clip9">
      <path
         d="M 562.5,130.10156 880.69922,448.30078 562.5,766.49609 244.30078,448.30078 Z m 0,0"
         id="path857" />
    </clipPath>
    <clipPath
       id="clip1-8">
      <path
         d="M 426,426 H 699 V 699 H 426 Z m 0,0"
         id="path833-7" />
    </clipPath>
    <clipPath
       id="clip2-8">
      <path
         d="M 378.04297,562.5 562.59766,377.94141 747.15234,562.5 562.59766,747.05469 Z m 0,0"
         id="path836-7" />
    </clipPath>
    <clipPath
       id="clip3-7">
      <path
         d="M 378.04297,562.5 562.59766,377.94141 747.15234,562.5 562.59766,747.05469 Z m 0,0"
         id="path839-4" />
    </clipPath>
    <clipPath
       id="clip4-4">
      <path
         d="M 272,374 H 853 V 954 H 272 Z m 0,0"
         id="path842-9" />
    </clipPath>
    <clipPath
       id="clip5-1">
      <path
         d="M 562.5,345.72266 880.69922,663.92187 562.5,982.11719 244.30078,663.92187 Z m 0,0"
         id="path845-5" />
    </clipPath>
    <clipPath
       id="clip6-5">
      <path
         d="M 562.5,345.72266 880.69922,663.92187 562.5,982.11719 244.30078,663.92187 Z m 0,0"
         id="path848-5" />
    </clipPath>
    <clipPath
       id="clip7-8">
      <path
         d="M 272,158 H 853 V 738 H 272 Z m 0,0"
         id="path851-2" />
    </clipPath>
    <clipPath
       id="clip8-9">
      <path
         d="M 562.5,130.10156 880.69922,448.30078 562.5,766.49609 244.30078,448.30078 Z m 0,0"
         id="path854-8" />
    </clipPath>
    <clipPath
       id="clip9-2">
      <path
         d="M 562.5,130.10156 880.69922,448.30078 562.5,766.49609 244.30078,448.30078 Z m 0,0"
         id="path857-0" />
    </clipPath>
  </defs>
  <g
     id="surface1"
     transform="rotate(45,739.53087,113.29737)">
    <g
       clip-path="url(#clip1-8)"
       clip-rule="nonzero"
       id="g874">
      <g
         clip-path="url(#clip2-8)"
         clip-rule="nonzero"
         id="g872">
        <g
           clip-path="url(#clip3-7)"
           clip-rule="nonzero"
           id="g870">
          <path
             style="fill:#a6a6a6;fill-opacity:1;fill-rule:nonzero;stroke:none"
             d="m 629.70703,453.44141 c 2.32031,-2.31641 2.31641,-6.07032 0,-8.38672 l -16.77734,-16.77735 c -2.3125,-2.3164 -6.06641,-2.32031 -8.38672,0 l -41.94531,41.94532 -41.94532,-41.94532 c -2.3125,-2.3164 -6.07031,-2.32031 -8.38672,0 l -16.77734,16.77735 c -2.32031,2.32031 -2.31641,6.07422 0,8.38672 l 41.94141,41.94531 -41.94141,41.94531 -41.94531,-41.94531 c -2.31641,-2.31641 -6.07422,-2.31641 -8.39063,0 L 428.375,512.16406 c -2.3125,2.31641 -2.3125,6.07422 0,8.39063 L 470.32031,562.5 428.375,604.44141 c -2.3125,2.3164 -2.3125,6.07421 0,8.39062 l 16.77734,16.77734 c 2.31641,2.31641 6.07422,2.31641 8.39063,0 l 41.94531,-41.94531 41.94141,41.94531 -41.94141,41.94532 c -2.31641,2.3125 -2.32031,6.0664 0,8.38672 l 16.77734,16.77734 c 2.31641,2.32031 6.07422,2.31641 8.38672,0 l 41.94532,-41.94141 41.94531,41.94141 c 2.32031,2.32031 6.07422,2.31641 8.38672,0 l 16.77734,-16.77734 c 2.31641,-2.31641 2.32031,-6.07032 0,-8.38672 l -41.94141,-41.94532 41.94141,-41.94531 41.94531,41.94531 c 2.32032,2.32032 6.07032,2.32032 8.39063,0 l 16.77734,-16.77734 c 2.32031,-2.32031 2.32031,-6.07031 0,-8.39062 L 654.875,562.5 696.82031,520.55469 c 2.32031,-2.32032 2.32031,-6.07032 0,-8.39063 l -16.77734,-16.77734 c -2.32031,-2.32031 -6.07031,-2.32031 -8.39063,0 l -41.94531,41.94531 -41.94141,-41.94531 z M 604.54297,562.5 562.59766,604.44141 520.65234,562.5 562.59766,520.55469 Z m 0,0"
             id="path868" />
        </g>
      </g>
    </g>
    <path
       style="fill:#ff8f4c;fill-opacity:1;fill-rule:nonzero;stroke:none"
       d="m 562.42578,380.34766 12.57031,9.09765 c 1.00391,0.77735 2.33985,0.88672 3.44922,0.22266 1.11328,-0.66797 1.89453,-1.66406 1.89453,-2.88672 V 169.875 c 0,-1.22266 -0.66797,-2.44141 -1.78125,-2.99609 -1.11328,-0.55469 -2.44922,-0.44532 -3.44922,0.22265 l -12.68359,9.09766 -12.6875,-8.98828 c -1,-0.77735 -2.33594,-0.88672 -3.44922,-0.22266 -1.11328,0.66797 -1.77734,1.66406 -1.77734,2.99609 v 216.91016 c 0,1.21875 0.66406,2.44141 1.77734,2.99609 1.11328,0.55469 2.44922,0.44141 3.44922,-0.22265 z m 0,0"
       id="path876" />
    <g
       clip-path="url(#clip4-4)"
       clip-rule="nonzero"
       id="g884">
      <g
         clip-path="url(#clip5-1)"
         clip-rule="nonzero"
         id="g882">
        <g
           clip-path="url(#clip6-5)"
           clip-rule="nonzero"
           id="g880">
          <path
             style="fill:#8a51ff;fill-opacity:1;fill-rule:nonzero;stroke:none"
             d="M 831.74609,614.96875 611.45312,394.67578 c -27.03515,-27.03516 -70.87109,-27.03516 -97.90625,0 L 293.25391,614.96875 c -27.03125,27.03125 -27.03125,70.87109 0,97.90625 l 220.29296,220.28906 c 27.03516,27.03516 70.8711,27.03516 97.90625,0 L 831.74609,712.875 c 27.03125,-27.03516 27.03125,-70.875 0,-97.90625 z M 586.97656,908.6875 c -13.51172,13.51172 -35.45312,13.5 -48.95312,0 L 317.73047,688.39844 c -13.50781,-13.51172 -13.50781,-35.44141 0,-48.95313 L 538.02344,419.15234 c 13.5,-13.5 35.4414,-13.51172 48.95312,0 l 220.29297,220.29297 c 13.49609,13.4961 13.49609,35.45313 0,48.95313 z m 0,0"
             id="path878" />
        </g>
      </g>
    </g>
    <path
       style="fill:#8a51ff;fill-opacity:1;fill-rule:nonzero;stroke:none"
       d="m 562.42578,920.39062 12.57031,9.09766 c 1.00391,0.77734 2.33985,0.89063 3.44922,0.22266 1.11328,-0.66407 1.89453,-1.66407 1.89453,-2.88282 V 709.91797 c 0,-1.21875 -0.66797,-2.44141 -1.78125,-2.9961 -1.11328,-0.55468 -2.44922,-0.4414 -3.44922,0.22266 l -12.68359,9.09766 -12.6875,-8.98828 c -1,-0.77344 -2.33594,-0.88672 -3.44922,-0.21875 -1.11328,0.66406 -1.77734,1.66406 -1.77734,2.99609 V 926.9375 c 0,1.22266 0.66406,2.44141 1.77734,2.99609 1.11328,0.55469 2.44922,0.44532 3.44922,-0.22265 z m 0,0"
       id="path886" />
    <g
       clip-path="url(#clip7-8)"
       clip-rule="nonzero"
       id="g894">
      <g
         clip-path="url(#clip8-9)"
         clip-rule="nonzero"
         id="g892">
        <g
           clip-path="url(#clip9-2)"
           clip-rule="nonzero"
           id="g890">
          <path
             style="fill:#ff8f4c;fill-opacity:1;fill-rule:nonzero;stroke:none"
             d="M 831.74609,399.34766 611.45312,179.05469 c -27.03515,-27.03516 -70.87109,-27.03516 -97.90625,0 L 293.25391,399.34766 c -27.03125,27.03125 -27.03125,70.87109 0,97.90625 l 220.29296,220.28906 c 27.03516,27.03515 70.8711,27.03515 97.90625,0 L 831.74609,497.25391 c 27.03125,-27.03516 27.03125,-70.875 0,-97.90625 z M 586.97656,693.06641 c -13.51172,13.51171 -35.45312,13.5 -48.95312,0 L 317.73047,472.77734 c -13.50781,-13.51172 -13.50781,-35.4414 0,-48.95312 L 538.02344,203.53125 c 13.5,-13.5 35.4414,-13.51172 48.95312,0 l 220.29297,220.29297 c 13.49609,13.49609 13.49609,35.45312 0,48.95312 z m 0,0"
             id="path888" />
        </g>
      </g>
    </g>
    <path
       style="fill:#8a51ff;fill-opacity:1;fill-rule:nonzero;stroke:none"
       d="m 319.76562,612.93359 2.32813,14.52735 c 0.15234,1.1914 0.97266,2.16015 2.16406,2.46093 1.19141,0.30079 2.38281,0.15235 3.20313,-0.66406 L 472.87109,483.84766 c 0.81641,-0.82032 1.1875,-2.08594 0.8125,-3.20313 -0.375,-1.11719 -1.34375,-1.9375 -2.46093,-2.16406 l -14.60157,-2.40235 -2.48047,-14.53125 c -0.14843,-1.1914 -0.96875,-2.16015 -2.16406,-2.46093 -1.1914,-0.29688 -2.30859,-0.0781 -3.19922,0.8164 L 303.36719,605.3125 c -0.82032,0.81641 -1.19141,2.08203 -0.81641,3.20312 0.375,1.11719 1.34375,1.9375 2.46094,2.16016 z m 0,0"
       id="path896" />
  </g>
</svg>
